<svg width="28.000000" height="28.000000" viewBox="0 0 28 28" fill="none" xmlns="http://www.w3.org/2000/svg" xmlns:xlink="http://www.w3.org/1999/xlink">
	<desc>
			Created with Pixso.
	</desc>
	<defs>
		<clipPath id="clip406_543">
			<rect width="27.168318" height="28.000000" fill="white" fill-opacity="0"/>
		</clipPath>
	</defs>
	<rect width="27.168318" height="28.000000" fill="#FFFFFF" fill-opacity="0"/>
	<g clip-path="url(#clip406_543)">
		<path d="M9.08 21.73C9.08 21.84 8.96 21.92 8.8 21.92C8.62 21.94 8.49 21.85 8.49 21.73C8.49 21.62 8.62 21.53 8.78 21.53C8.94 21.51 9.08 21.6 9.08 21.73ZM7.38 21.48C7.34 21.59 7.45 21.72 7.61 21.75C7.76 21.8 7.92 21.75 7.95 21.64C7.99 21.53 7.88 21.41 7.72 21.36C7.58 21.32 7.42 21.37 7.38 21.48ZM9.8 21.39C9.64 21.43 9.53 21.53 9.55 21.66C9.56 21.77 9.71 21.84 9.87 21.8C10.03 21.76 10.14 21.66 10.12 21.55C10.11 21.44 9.96 21.37 9.8 21.39ZM13.4 0.43C5.81 0.43 0 6.19 0 13.78C0 19.84 3.82 25.03 9.28 26.86C9.98 26.98 10.23 26.55 10.23 26.2C10.23 25.86 10.21 23.99 10.21 22.84C10.21 22.84 6.38 23.66 5.57 21.21C5.57 21.21 4.95 19.62 4.05 19.21C4.05 19.21 2.79 18.35 4.14 18.36C4.14 18.36 5.5 18.47 6.25 19.78C7.45 21.89 9.46 21.28 10.24 20.92C10.37 20.04 10.73 19.44 11.12 19.08C8.06 18.74 4.97 18.29 4.97 13.03C4.97 11.53 5.38 10.77 6.26 9.81C6.12 9.46 5.65 7.99 6.4 6.1C7.55 5.74 10.18 7.57 10.18 7.57C11.28 7.27 12.46 7.11 13.62 7.11C14.79 7.11 15.97 7.27 17.06 7.57C17.06 7.57 19.7 5.74 20.84 6.1C21.59 8 21.13 9.46 20.98 9.81C21.86 10.78 22.4 11.53 22.4 13.03C22.4 18.31 19.17 18.73 16.11 19.08C16.61 19.51 17.04 20.33 17.04 21.61C17.04 23.46 17.02 25.74 17.02 26.18C17.02 26.54 17.28 26.97 17.97 26.85C23.45 25.03 27.16 19.84 27.16 13.78C27.16 6.19 21 0.43 13.4 0.43ZM5.32 19.29C5.25 19.35 5.26 19.47 5.36 19.58C5.45 19.67 5.57 19.7 5.64 19.63C5.71 19.58 5.7 19.45 5.6 19.35C5.52 19.26 5.39 19.22 5.32 19.29ZM4.73 18.85C4.69 18.92 4.74 19.01 4.85 19.06C4.94 19.12 5.05 19.1 5.09 19.03C5.13 18.96 5.07 18.87 4.96 18.81C4.85 18.78 4.77 18.8 4.73 18.85ZM6.5 20.8C6.41 20.87 6.45 21.03 6.57 21.14C6.7 21.26 6.86 21.28 6.93 21.19C7 21.12 6.97 20.96 6.86 20.85C6.74 20.73 6.57 20.71 6.5 20.8ZM5.88 19.99C5.79 20.05 5.79 20.19 5.88 20.32C5.97 20.44 6.11 20.5 6.18 20.44C6.27 20.37 6.27 20.23 6.18 20.1C6.11 19.98 5.97 19.92 5.88 19.99Z" fill="#FFFFFF" fill-opacity="1.000000" fill-rule="nonzero"/>
	</g>
</svg>
