<svg width="25.000000" height="30.000000" viewBox="0 0 25 30" fill="none" xmlns="http://www.w3.org/2000/svg" xmlns:xlink="http://www.w3.org/1999/xlink">
	<desc>
			Created with Pixso.
	</desc>
	<defs>
		<clipPath id="clip406_541">
			<rect width="24.395996" height="29.308838" fill="white" fill-opacity="0"/>
		</clipPath>
	</defs>
	<rect width="24.395996" height="29.308838" fill="#FFFFFF" fill-opacity="0"/>
	<g clip-path="url(#clip406_541)">
		<path d="M12.2 8.07C8.74 8.07 5.94 11 5.94 14.64C5.94 18.28 8.74 21.22 12.2 21.22C15.66 21.22 18.46 18.28 18.46 14.64C18.46 11 15.66 8.07 12.2 8.07ZM12.2 18.92C9.96 18.92 8.13 17 8.13 14.64C8.13 12.29 9.95 10.37 12.2 10.37C14.44 10.37 16.27 12.29 16.27 14.64C16.27 17 14.44 18.92 12.2 18.92ZM20.17 7.8C20.17 8.65 19.52 9.33 18.71 9.33C17.9 9.33 17.25 8.64 17.25 7.8C17.25 6.95 17.91 6.26 18.71 6.26C19.52 6.26 20.17 6.95 20.17 7.8ZM24.31 9.35C24.22 7.3 23.78 5.48 22.34 3.98C20.92 2.48 19.19 2.01 17.23 1.91C15.22 1.79 9.18 1.79 7.16 1.91C5.21 2 3.48 2.47 2.05 3.97C0.62 5.47 0.17 7.29 0.08 9.35C-0.04 11.47 -0.04 17.81 0.08 19.93C0.17 21.99 0.62 23.81 2.05 25.31C3.48 26.81 5.21 27.28 7.16 27.38C9.18 27.5 15.22 27.5 17.23 27.38C19.19 27.28 20.92 26.81 22.34 25.31C23.77 23.81 24.22 21.99 24.31 19.93C24.43 17.81 24.43 11.47 24.31 9.35ZM21.71 22.21C21.29 23.33 20.46 24.19 19.39 24.64C17.79 25.31 13.97 25.16 12.2 25.16C10.42 25.16 6.61 25.31 5.01 24.64C3.94 24.2 3.12 23.33 2.69 22.21C2.05 20.52 2.2 16.51 2.2 14.64C2.2 12.78 2.05 8.76 2.69 7.08C3.11 5.96 3.93 5.1 5.01 4.64C6.61 3.97 10.42 4.13 12.2 4.13C13.97 4.13 17.79 3.98 19.39 4.64C20.46 5.09 21.28 5.95 21.71 7.08C22.35 8.77 22.2 12.78 22.2 14.64C22.2 16.51 22.35 20.52 21.71 22.21Z" fill="#FFFFFF" fill-opacity="1.000000" fill-rule="nonzero"/>
	</g>
</svg>
