<svg width="32.000000" height="28.000000" viewBox="0 0 32 28" fill="none" xmlns="http://www.w3.org/2000/svg" xmlns:xlink="http://www.w3.org/1999/xlink">
	<desc>
			Created with Pixso.
	</desc>
	<defs>
		<clipPath id="clip406_537">
			<rect width="31.461819" height="28.000000" fill="white" fill-opacity="0"/>
		</clipPath>
	</defs>
	<rect width="31.461819" height="28.000000" fill="#FFFFFF" fill-opacity="0"/>
	<g clip-path="url(#clip406_537)">
		<path d="M29.76 6.43C29.97 5.75 29.76 5.25 28.79 5.25L25.57 5.25C24.75 5.25 24.38 5.68 24.18 6.16C24.18 6.16 22.54 10.16 20.22 12.75C19.47 13.5 19.13 13.74 18.72 13.74C18.52 13.74 18.21 13.5 18.21 12.81L18.21 6.43C18.21 5.61 17.98 5.25 17.3 5.25L12.24 5.25C11.73 5.25 11.42 5.63 11.42 5.98C11.42 6.76 12.58 6.94 12.7 9.13L12.7 13.87C12.7 14.91 12.51 15.11 12.1 15.11C11.01 15.11 8.36 11.09 6.78 6.5C6.47 5.61 6.16 5.25 5.33 5.25L2.11 5.25C1.2 5.25 1.01 5.68 1.01 6.16C1.01 7.01 2.1 11.25 6.1 16.85C8.76 20.67 12.5 22.75 15.91 22.75C17.96 22.75 18.21 22.29 18.21 21.49C18.21 17.84 18.03 17.5 19.05 17.5C19.53 17.5 20.35 17.74 22.26 19.58C24.44 21.77 24.8 22.75 26.03 22.75L29.25 22.75C30.16 22.75 30.63 22.29 30.36 21.38C29.75 19.47 25.61 15.54 25.43 15.28C24.95 14.67 25.09 14.39 25.43 13.85C25.43 13.84 29.36 8.31 29.76 6.43Z" fill="#FFFFFF" fill-opacity="1.000000" fill-rule="nonzero"/>
	</g>
</svg>
